GRF
version=1
nRows=18
nColumns=19
inDegrees=no
endheader
time	ground_force_vx	ground_force_vy	ground_force_vz	ground_force_px	ground_force_py	ground_force_pz	ground_torque_x	ground_torque_y	ground_torque_z	1_ground_force_vx	1_ground_force_vy	1_ground_force_vz	1_ground_force_px	1_ground_force_py	1_ground_force_pz	1_ground_torque_x	1_ground_torque_y	1_ground_torque_z
      0.00000000	    -61.74706068	    648.99706491	    -11.46686658	      0.16139595	      0.00000000	      0.09014201	      0.00000000	      0.08192158	     -0.00000000	      0.00000000	     -0.00000000	      0.00000000	     -0.02276467	      0.00000000	      0.15793203	     -0.00000000	     -0.24803176	      0.00000000
      0.00100000	    -61.81253957	    649.42088973	    -11.16681872	      0.16140389	      0.00000000	      0.08963460	      0.00000000	      0.14191547	     -0.00000000	      0.00000000	     -0.00000000	      0.00000000	     -0.02276467	      0.00000000	      0.15793203	     -0.00000000	     -0.24803176	      0.00000000
      0.00200000	    -61.87630410	    649.84709174	    -10.86950153	      0.16141022	      0.00000000	      0.08912585	      0.00000000	      0.19589650	     -0.00000000	      0.00000000	     -0.00000000	      0.00000000	     -0.02276467	      0.00000000	      0.15793203	     -0.00000000	     -0.24803176	      0.00000000
      0.00300000	    -61.93829558	    650.27562909	    -10.57474927	      0.16141502	     -0.00000000	      0.08861558	      0.00000000	      0.24408586	     -0.00000000	      0.00000000	     -0.00000000	      0.00000000	     -0.02276467	      0.00000000	      0.15793203	     -0.00000000	     -0.24803176	      0.00000000
      0.00400000	    -61.99846343	    650.70647690	    -10.28242063	      0.16141832	     -0.00000000	      0.08810363	      0.00000000	      0.28670803	     -0.00000000	      0.00000000	     -0.00000000	      0.00000000	     -0.02276467	      0.00000000	      0.15793203	     -0.00000000	     -0.24803176	      0.00000000
      0.00500000	    -62.05676524	    651.13962648	     -9.99239795	      0.16142019	     -0.00000000	      0.08758987	      0.00000000	      0.32399026	     -0.00000000	      0.00000000	     -0.00000000	      0.00000000	     -0.02276467	      0.00000000	      0.15793203	     -0.00000000	     -0.24803176	      0.00000000
      0.00600000	    -62.11316686	    651.57508427	     -9.70458643	      0.16142069	     -0.00000000	      0.08707419	      0.00000000	      0.35616220	     -0.00000000	      0.00000000	     -0.00000000	      0.00000000	     -0.02276467	      0.00000000	      0.15793203	     -0.00000000	     -0.24803176	      0.00000000
      0.00700000	    -62.16764233	    652.01287088	     -9.41891310	      0.16141988	     -0.00000000	      0.08655653	      0.00000000	      0.38345535	     -0.00000000	      0.00000000	     -0.00000000	      0.00000000	     -0.02276467	      0.00000000	      0.15793203	     -0.00000000	     -0.24803176	      0.00000000
      0.00800000	    -62.22017398	    652.45301994	     -9.13532575	      0.16141781	     -0.00000000	      0.08603683	      0.00000000	      0.40610264	     -0.00000000	      0.00000000	     -0.00000000	      0.00000000	     -0.02276467	      0.00000000	      0.15793203	     -0.00000000	     -0.24803176	      0.00000000
      0.00900000	    -62.27075232	    652.89557693	     -8.85379170	      0.16141455	     -0.00000000	      0.08551508	      0.00000000	      0.42433783	     -0.00000000	      0.00000000	     -0.00000000	      0.00000000	     -0.02276467	      0.00000000	      0.15793203	     -0.00000000	     -0.24803176	      0.00000000
      0.01000000	    -62.31937601	    653.34059801	     -8.57429654	      0.16141015	     -0.00000000	      0.08499126	      0.00000000	      0.43839502	     -0.00000000	      0.00000000	     -0.00000000	      0.00000000	     -0.02276467	      0.00000000	      0.15793203	     -0.00000000	     -0.24803176	      0.00000000
      0.01100000	    -62.36605176	    653.78814871	     -8.29684265	      0.16140469	     -0.00000000	      0.08446543	      0.00000000	      0.44850809	     -0.00000000	      0.00000000	     -0.00000000	      0.00000000	     -0.02276467	      0.00000000	      0.15793203	     -0.00000000	     -0.24803176	      0.00000000
      0.01200000	    -62.41079422	    654.23830267	     -8.02144778	      0.16139823	     -0.00000000	      0.08393763	      0.00000000	      0.45491014	     -0.00000000	      0.00000000	     -0.00000000	      0.00000000	     -0.02276467	      0.00000000	      0.15793203	     -0.00000000	     -0.24803176	      0.00000000
      0.01300000	    -62.45362586	    654.69114031	     -7.74814350	      0.16139082	     -0.00000000	      0.08340794	      0.00000000	      0.45783292	     -0.00000000	      0.00000000	     -0.00000000	      0.00000000	     -0.02276467	      0.00000000	      0.15793203	     -0.00000000	     -0.24803176	      0.00000000
      0.01400000	    -62.49457675	    655.14674747	     -7.47697356	      0.16138252	     -0.00000000	      0.08287648	      0.00000000	      0.45750623	     -0.00000000	      0.00000000	     -0.00000000	      0.00000000	     -0.02276467	      0.00000000	      0.15793203	     -0.00000000	     -0.24803176	      0.00000000
      0.01500000	    -62.53368441	    655.60521411	     -7.20799227	      0.16137341	     -0.00000000	      0.08234337	      0.00000000	      0.45415738	     -0.00000000	      0.00000000	     -0.00000000	      0.00000000	     -0.02276467	      0.00000000	      0.15793203	     -0.00000000	     -0.24803176	      0.00000000
      0.01600000	    -62.57099355	    656.06663291	     -6.94126284	      0.16136352	     -0.00000000	      0.08180877	      0.00000000	      0.44801059	     -0.00000000	      0.00000000	     -0.00000000	      0.00000000	     -0.02276467	      0.00000000	      0.15793203	     -0.00000000	     -0.24803176	      0.00000000
      0.01700000	    -62.60655582	    656.53109799	     -6.67685567	      0.16135293	     -0.00000000	      0.08127285	      0.00000000	      0.43928643	     -0.00000000	      0.00000000	     -0.00000000	      0.00000000	     -0.02276467	      0.00000000	      0.15793203	     -0.00000000	     -0.24803176	      0.00000000
